<?xml version="1.0" encoding="UTF-8"?>
<svg width="20px" height="20px" viewBox="0 0 20 20" version="1.1" xmlns="http://www.w3.org/2000/svg" xmlns:xlink="http://www.w3.org/1999/xlink">
    <!-- Generator: Sketch 64 (93537) - https://sketch.com -->
    <title>arrow-up-right</title>
    <desc>Created with Sketch.</desc>
    <defs>
        <path d="M12.75,26.9166667 C11.9675966,26.9166667 11.3333333,26.2824034 11.3333333,25.5 C11.3333333,24.7175966 11.9675966,24.0833333 12.75,24.0833333 L12.75,24.0833333 L22.0793333,24.0833333 L7.49826539,9.50173461 C6.97960032,8.98306953 6.94718375,8.16228837 7.40101569,7.60585878 L7.49826539,7.49826539 C8.05150814,6.94502265 8.94849186,6.94502265 9.50173461,7.49826539 L9.50173461,7.49826539 L24.0833333,22.0793333 L24.0833333,12.75 C24.0833333,12.0136203 24.6451721,11.4084651 25.3635655,11.3398184 L25.5,11.3333333 C26.2824034,11.3333333 26.9166667,11.9675966 26.9166667,12.75 L26.9166667,12.75 L26.9166667,25.5 C26.9166667,25.7346388 26.8596229,25.9559544 26.758647,26.1508351 C26.7509713,26.1658546 26.7429868,26.1806309 26.7347207,26.1952914 C26.7211648,26.2190808 26.7071409,26.2423293 26.6924809,26.2651301 C26.6818664,26.2818795 26.6705191,26.2987307 26.6587704,26.3153852 C26.6437157,26.3365232 26.628579,26.3568008 26.6129226,26.3766495 C26.5789118,26.4198598 26.5417719,26.4616973 26.5017346,26.5017346 L26.5784657,26.418659 C26.5598374,26.4405067 26.540557,26.4617813 26.5206545,26.4824528 L26.5017346,26.5017346 C26.4953313,26.5081379 26.488882,26.514467 26.4823877,26.5207221 C26.4617813,26.540557 26.4405067,26.5598374 26.418659,26.5784657 C26.4047966,26.5903595 26.3907225,26.601913 26.3764825,26.6131542 C26.3568008,26.628579 26.3365232,26.6437157 26.3158372,26.6583122 C26.2987307,26.6705191 26.2818795,26.6818664 26.2648451,26.6928123 C26.2423293,26.7071409 26.2190808,26.7211648 26.1954095,26.7345275 C26.1806309,26.7429868 26.1658546,26.7509713 26.1509702,26.7586741 C26.0513695,26.8101844 25.9450175,26.8502774 25.8335226,26.8771827 C25.7825962,26.8893105 25.7318819,26.8986123 25.6808805,26.9051408 C25.6218187,26.912765 25.561365,26.9166667 25.5,26.9166667 L25.5,26.9166667 Z" id="path-1"></path>
    </defs>
    <g id="시세찾기" stroke="none" stroke-width="1" fill="none" fill-rule="evenodd">
        <g id="검색-결과-type2" transform="translate(-496.000000, -896.000000)">
            <rect id="Rectangle" stroke="#979797" fill="#F2F8F1" x="0.5" y="0.5" width="1439" height="1023"></rect>
            <g id="좌측" transform="translate(250.000000, 338.000000)" fill="#007FDF">
                <g id="arrow-down-right" transform="translate(239.000000, 551.000000)">
                    <mask id="mask-2" fill="white">
                        <use xlink:href="#path-1"></use>
                    </mask>
                    <use id="Combined-Shape" fill="#000000" fill-rule="nonzero" xlink:href="#path-1"></use>
                    <g id="COLOR/-black" fill="none" mask="url(#mask-2)">
                        <rect id="Rectangle" fill="#000000" x="0" y="0" width="34" height="34"></rect>
                    </g>
                </g>
            </g>
        </g>
    </g>
</svg>
