<svg xmlns="http://www.w3.org/2000/svg" xmlns:xlink="http://www.w3.org/1999/xlink" width="34" height="34" viewBox="0 0 34 34">
    <defs>
        <path id="prefix__a" d="M18.5.083c.061 0 .122.004.181.012.05.006.102.016.152.028.024.005.047.012.07.018.06.018.12.04.18.067.023.01.046.022.069.034l.035.019.08.047.048.033c.022.015.042.03.062.046.043.034.085.071.125.111l-.083-.076.061.055.022.021.025.026.044.049.042.05.055.075.02.03c.016.024.03.049.045.073.01.018.02.035.028.053.1.193.156.413.156.646v12.75c0 .782-.635 1.417-1.417 1.417s-1.417-.635-1.417-1.417V4.92L2.502 19.501c-.519.518-1.34.55-1.896.097l-.108-.097c-.553-.554-.553-1.45 0-2.004l14.58-14.582H5.75c-.736 0-1.342-.561-1.41-1.28L4.333 1.5c0-.782.635-1.417 1.417-1.417z"/>
    </defs>
    <g fill="none" fill-rule="evenodd" transform="translate(7 7)">
        <mask id="prefix__b" fill="#fff">
            <use xlink:href="#prefix__a"/>
        </mask>
        <use fill="#FA6400" fill-rule="nonzero" xlink:href="#prefix__a"/>
        <g fill="#FA6400" mask="url(#prefix__b)">
            <path d="M0 0H34V34H0z" transform="translate(-7 -7)"/>
        </g>
    </g>
</svg>
