<?xml version="1.0" encoding="UTF-8"?>
<svg width="20px" height="20px" viewBox="0 0 20 20" version="1.1" xmlns="http://www.w3.org/2000/svg" xmlns:xlink="http://www.w3.org/1999/xlink">
    <!-- Generator: Sketch 64 (93537) - https://sketch.com -->
    <title>arrow-up-right</title>
    <desc>Created with Sketch.</desc>
    <defs>
        <path d="M25.5,7.08333333 C25.561365,7.08333333 25.6218187,7.08723499 25.6811265,7.09480377 C25.7318819,7.10138767 25.7825962,7.11068949 25.8327792,7.12276466 C25.8568405,7.12844424 25.8799335,7.13464801 25.9027856,7.14141266 C25.963542,7.15945236 26.0237484,7.18172773 26.0825183,7.20821716 C26.1057472,7.21873863 26.1289854,7.23000853 26.1518588,7.2418839 C26.1637791,7.24796695 26.1755382,7.25427752 26.187225,7.26076605 C26.2141838,7.27587598 26.2404567,7.29162434 26.2661594,7.30818146 C26.2825257,7.31856889 26.29905,7.32970617 26.3153852,7.34122962 C26.3365232,7.35628435 26.3568008,7.37142104 26.3766495,7.38707736 C26.4198598,7.42108822 26.4616973,7.45822809 26.5017346,7.49826539 L26.418659,7.42153433 C26.4396898,7.43946609 26.4601896,7.45800218 26.4801316,7.47711572 L26.5017346,7.49826539 C26.510379,7.50690981 26.5188884,7.51563815 26.5272627,7.52444779 C26.5419271,7.53987806 26.5567183,7.55617175 26.5711286,7.57280449 C26.5858015,7.58967446 26.5996385,7.60640105 26.6130324,7.62336315 C26.6320062,7.64753541 26.6504611,7.67256483 26.6680936,7.6982037 C26.67505,7.70810297 26.6818095,7.71820353 26.6884252,7.72837037 C26.7038774,7.75235993 26.7185741,7.77650438 26.7325553,7.80110849 C26.742683,7.81872977 26.7521416,7.83626052 26.7612039,7.85394195 C26.8604316,8.04719505 26.9166667,8.26703033 26.9166667,8.5 L26.9166667,8.5 L26.9166667,21.25 C26.9166667,22.0324034 26.2824034,22.6666667 25.5,22.6666667 C24.7175966,22.6666667 24.0833333,22.0324034 24.0833333,21.25 L24.0833333,21.25 L24.0833333,11.9193333 L9.50173461,26.5017346 C8.98306953,27.0203997 8.16228837,27.0528162 7.60585878,26.5989843 L7.49826539,26.5017346 C6.94502265,25.9484919 6.94502265,25.0515081 7.49826539,24.4982654 L7.49826539,24.4982654 L22.0783333,9.91633333 L12.75,9.91666667 C12.0136203,9.91666667 11.4084651,9.35482792 11.3398184,8.63643445 L11.3333333,8.5 C11.3333333,7.7175966 11.9675966,7.08333333 12.75,7.08333333 L12.75,7.08333333 Z" id="path-1"></path>
    </defs>
    <g id="시세찾기" stroke="none" stroke-width="1" fill="none" fill-rule="evenodd">
        <g id="검색-결과-type2" transform="translate(-513.000000, -904.000000)">
            <rect id="Rectangle" stroke="#979797" fill="#F2F8F1" x="0.5" y="0.5" width="1439" height="1023"></rect>
            <g id="좌측" transform="translate(250.000000, 338.000000)" fill="#FA6400">
                <g id="arrow-up-right" transform="translate(256.000000, 559.000000)">
                    <mask id="mask-2" fill="white">
                        <use xlink:href="#path-1"></use>
                    </mask>
                    <use id="Combined-Shape" fill="#000000" fill-rule="nonzero" xlink:href="#path-1"></use>
                    <g id="COLOR/-black" fill="none" mask="url(#mask-2)">
                        <rect id="Rectangle" fill="#000000" x="0" y="0" width="34" height="34"></rect>
                    </g>
                </g>
            </g>
        </g>
    </g>
</svg>
