<svg xmlns="http://www.w3.org/2000/svg" xmlns:xlink="http://www.w3.org/1999/xlink" width="34" height="34" viewBox="0 0 34 34">
    <defs>
        <path id="prefix__a" d="M5.75 19.917c-.782 0-1.417-.635-1.417-1.417s.635-1.417 1.417-1.417h9.33L.497 2.502C-.02 1.983-.052 1.162.401.606L.498.498c.554-.553 1.45-.553 2.004 0L17.083 15.08V5.75c0-.736.562-1.342 1.28-1.41l.137-.007c.782 0 1.417.635 1.417 1.417V18.5c0 .235-.057.456-.158.65l-.024.045-.043.07c-.01.017-.021.034-.033.05-.015.022-.03.042-.046.062-.034.043-.071.085-.111.125l.076-.083c-.018.022-.037.043-.057.063l-.02.02-.019.019c-.02.02-.041.039-.063.057l-.043.035-.06.045c-.017.013-.034.024-.051.035l-.07.042-.044.024c-.1.051-.206.091-.317.118-.051.012-.102.022-.153.028-.06.008-.12.012-.181.012z"/>
    </defs>
    <g fill="none" fill-rule="evenodd" transform="translate(7 7)">
        <mask id="prefix__b" fill="#fff">
            <use xlink:href="#prefix__a"/>
        </mask>
        <use fill="#0091FF" fill-rule="nonzero" xlink:href="#prefix__a"/>
        <g fill="#0091FF" mask="url(#prefix__b)">
            <path d="M0 0H34V34H0z" transform="translate(-7 -7)"/>
        </g>
    </g>
</svg>
