<?xml version="1.0" encoding="UTF-8"?>
<svg width="206px" height="49px" viewBox="0 0 206 49" version="1.1" xmlns="http://www.w3.org/2000/svg" xmlns:xlink="http://www.w3.org/1999/xlink">
    <!-- Generator: Sketch 64 (93537) - https://sketch.com -->
    <title>logo</title>
    <desc>Created with Sketch.</desc>
    <g id="Symbols" stroke="none" stroke-width="1" fill="none" fill-rule="evenodd">
        <g id="logo_full">
            <g id="logo">
                <path d="M65.52,34.28 C67.488,34.28 69,33.872 70.128,33.272 L70.128,30.992 C69.144,31.4 67.944,31.88 66.072,31.88 C62.616,31.88 61.296,29.744 61.296,25.976 L61.296,25.136 C61.296,21.224 63.192,19.688 66.048,19.688 C67.56,19.688 68.688,19.952 69.96,20.456 L69.96,18.152 C68.952,17.6 67.656,17.288 65.832,17.288 C61.56,17.288 58.104,19.52 58.104,25.448 L58.104,26.048 C58.104,31.592 60.936,34.28 65.52,34.28 Z M74.112,34.016 L75.6,29.84 L81.72,29.84 L83.208,34.016 L86.256,34.016 L80.4,17.552 L77.376,17.552 L71.376,34.016 L74.112,34.016 Z M80.976,27.632 L76.296,27.632 L78.6,21.056 L78.672,21.056 L80.976,27.632 Z M91.56,34.016 L91.56,27.368 L94.08,27.368 L97.752,34.016 L100.968,34.016 L96.888,26.744 L96.888,26.624 C98.736,25.904 99.864,24.68 99.864,22.376 C99.864,19.16 97.92,17.552 94.128,17.552 L88.608,17.552 L88.608,34.016 L91.56,34.016 Z M93.816,25.328 L91.56,25.328 L91.56,19.832 L93.792,19.832 C95.904,19.832 96.816,20.6 96.816,22.472 C96.816,24.392 95.952,25.328 93.816,25.328 Z M109.848,34.016 L109.848,19.88 L114.528,19.88 L114.528,17.552 L102.168,17.552 L102.168,19.88 L106.896,19.88 L106.896,34.016 L109.848,34.016 Z M127.392,34.304 C131.376,34.304 133.272,32.36 133.272,29.24 C133.272,26.312 131.712,25.232 129.12,24.488 L127.584,24.008 C125.952,23.552 125.472,23 125.472,21.704 C125.472,20.384 126.432,19.664 128.16,19.664 C129.984,19.664 131.328,20.048 132.36,20.48 L132.36,18.176 C131.448,17.696 130.272,17.288 128.112,17.288 C124.392,17.288 122.592,19.184 122.592,21.968 C122.592,24.752 124.008,26 126.336,26.648 L127.896,27.08 C129.696,27.632 130.296,28.16 130.296,29.528 C130.296,31.016 129.36,31.928 127.152,31.928 C125.352,31.928 123.792,31.496 122.472,30.92 L122.472,33.248 C123.6,33.848 125.232,34.304 127.392,34.304 Z M137.352,34.016 L138.84,29.84 L144.96,29.84 L146.448,34.016 L149.496,34.016 L143.64,17.552 L140.616,17.552 L134.616,34.016 L137.352,34.016 Z M144.216,27.632 L139.536,27.632 L141.84,21.056 L141.912,21.056 L144.216,27.632 Z M159.072,34.016 L164.88,17.552 L162.12,17.552 L157.824,30.272 L157.752,30.272 L153.432,17.552 L150.336,17.552 L156.144,34.016 L159.072,34.016 Z M170.304,34.016 L170.304,17.552 L167.328,17.552 L167.328,34.016 L170.304,34.016 Z M196.152,34.016 L196.152,27.368 L198.672,27.368 L202.344,34.016 L205.56,34.016 L201.48,26.744 L201.48,26.624 C203.328,25.904 204.456,24.68 204.456,22.376 C204.456,19.16 202.512,17.552 198.72,17.552 L193.2,17.552 L193.2,34.016 L196.152,34.016 Z M198.408,25.328 L196.152,25.328 L196.152,19.832 L198.384,19.832 C200.496,19.832 201.408,20.6 201.408,22.472 C201.408,24.392 200.544,25.328 198.408,25.328 Z" id="CARTSAVIR" fill="#4EA37A" fill-rule="nonzero"></path>
                <g id="icon">
                    <circle id="Oval" fill="#4EA37A" fill-rule="evenodd" cx="24.5" cy="24.5" r="24.5"></circle>
                    <circle id="Oval" fill="#FFFFFF" fill-rule="evenodd" cx="15.575" cy="39.725" r="2.275"></circle>
                    <circle id="Oval" fill="#FFFFFF" fill-rule="evenodd" cx="30.275" cy="39.725" r="2.275"></circle>
                    <path d="M10.85,22.1344671 L12.7956125,32.6930114 C13.0788119,33.9976705 13.9122207,34.65 15.2958388,34.65 C16.6794569,34.65 21.7824041,34.65 30.6046806,34.65 C31.7302169,34.5034181 32.4592264,33.8510886 32.791709,32.6930114 C33.1241916,31.5349342 34.9102886,24.3705971 38.15,11.2" id="Path-2" stroke="#FFFFFF" stroke-width="2.08333333" stroke-linecap="round" stroke-linejoin="round"></path>
                    <path d="M10.85,21.9231934 L14.360083,21.9231934 C15.6493408,21.6902018 16.5097575,20.7768636 16.941333,19.1831787 C17.5886963,16.7926514 17.9036621,15.05 19.377832,15.05 C20.360612,15.05 20.9013346,15.6829508 21,16.9488525 C21.7007975,24.0829508 22.7052246,27.65 24.0132813,27.65 C25.3213379,27.65 26.2784831,25.9583333 26.8847168,22.575 C27.2614909,21.2916667 28.0666504,20.65 29.3001953,20.65 C30.5337402,20.65 31.2985677,20.65 31.5946777,20.65" id="Path-5" stroke="#FFFFFF" stroke-width="2.08333333" stroke-linecap="round" stroke-linejoin="round"></path>
                </g>
                <g id="나뭇잎" transform="translate(171.000000, 14.000000)">
                    <path d="M11.5329841,1.93837911 C7.30957195,4.26636078 5.1896184,7.60169954 5.17312342,11.9443954 C5.14852528,18.4584392 11.4567681,22.0627305 11.4567681,22.0627305 C11.4567681,22.0627305 17.7999263,18.9968865 17.8266251,11.9766273 C17.8442758,7.29645446 15.7463955,3.95037174 11.5329841,1.93837911 Z" id="Path-3" fill="#4EA37A" fill-rule="evenodd" transform="translate(11.499874, 12.000555) rotate(217.000000) translate(-11.499874, -12.000555) "></path>
                    <path d="M5.68784516,20.1853779 C7.63859049,15.4400372 9.91075959,12.111168 12.5043524,10.1987705" id="Path-4" stroke="#F2F8F1" stroke-width="1.35" stroke-linecap="round"></path>
                </g>
            </g>
        </g>
    </g>
</svg>
